HIERARCHY
ROOT Hips
{
	OFFSET 0.000000 0.000000 0.000000
	CHANNELS 6 Xposition Yposition Zposition Zrotation Yrotation Xrotation 
	JOINT LHipJoint
	{
		OFFSET 0.000000 0.000000 0.000000
		CHANNELS 3 Zrotation Yrotation Xrotation
		JOINT LeftUpLeg
		{
			OFFSET 1.363060 -1.794630 0.839290
			CHANNELS 3 Zrotation Yrotation Xrotation
			JOINT LeftLeg
			{
				OFFSET 2.448110 -6.726130 0.000000
				CHANNELS 3 Zrotation Yrotation Xrotation
				JOINT LeftFoot
				{
					OFFSET 2.562200 -7.039590 0.000000
					CHANNELS 3 Zrotation Yrotation Xrotation
					JOINT LeftToeBase
					{
						OFFSET 0.157640 -0.433110 2.322550
						CHANNELS 3 Zrotation Yrotation Xrotation
						End Site
						{
							OFFSET 0.000000 0.000000 0.000000
						}
					}
				}
			}
		}
	}
	JOINT RHipJoint
	{
		OFFSET 0.000000 0.000000 0.000000
		CHANNELS 3 Zrotation Yrotation Xrotation
		JOINT RightUpLeg
		{
			OFFSET -1.305520 -1.794630 0.839290
			CHANNELS 3 Zrotation Yrotation Xrotation
			JOINT RightLeg
			{
				OFFSET -2.542530 -6.985550 0.000000
				CHANNELS 3 Zrotation Yrotation Xrotation
				JOINT RightFoot
				{
					OFFSET -2.568260 -7.056230 0.000000
					CHANNELS 3 Zrotation Yrotation Xrotation
					JOINT RightToeBase
					{
						OFFSET -0.164730 -0.452590 2.363150
						CHANNELS 3 Zrotation Yrotation Xrotation
						End Site
						{
							OFFSET 0.000000 0.000000 0.000000
						}
					}
				}
			}
		}
	}
	JOINT LowerBack
	{
		OFFSET 0.000000 0.000000 0.000000
		CHANNELS 3 Zrotation Yrotation Xrotation
		JOINT Spine
		{
			OFFSET 0.028270 2.035590 -0.193380
			CHANNELS 3 Zrotation Yrotation Xrotation
			JOINT Spine1
			{
				OFFSET 0.056720 2.048850 -0.042750
				CHANNELS 3 Zrotation Yrotation Xrotation
				JOINT Neck
				{
					OFFSET 0.000000 0.000000 0.000000
					CHANNELS 3 Zrotation Yrotation Xrotation
					JOINT Neck1
					{
						OFFSET -0.054170 1.746240 0.172020
						CHANNELS 3 Zrotation Yrotation Xrotation
						JOINT Head
						{
							OFFSET 0.104070 1.761360 -0.123970
							CHANNELS 3 Zrotation Yrotation Xrotation
							End Site
							{
								OFFSET 0.000000 0.000000 0.000000
							}
						}
					}
				}
				JOINT LeftShoulder
				{
					OFFSET 0.000000 0.000000 0.000000
					CHANNELS 3 Zrotation Yrotation Xrotation
					JOINT LeftArm
					{
						OFFSET 3.362410 1.200890 -0.311210
						CHANNELS 3 Zrotation Yrotation Xrotation
						JOINT LeftForeArm
						{
							OFFSET 4.983000 -0.000000 -0.000000
							CHANNELS 3 Zrotation Yrotation Xrotation
							JOINT LeftHand
							{
								OFFSET 3.483560 -0.000000 -0.000000
								CHANNELS 3 Zrotation Yrotation Xrotation
								JOINT LeftFingerBase
								{
									OFFSET 0.000000 0.000000 0.000000
									CHANNELS 3 Zrotation Yrotation Xrotation
									JOINT LeftHandIndex1
									{
										OFFSET 0.715260 -0.000000 -0.000000
										CHANNELS 3 Zrotation Yrotation Xrotation
										End Site
										{
											OFFSET 0.000000 0.000000 0.000000
										}
									}
								}
								JOINT LThumb
								{
									OFFSET 0.000000 0.000000 0.000000
									CHANNELS 3 Zrotation Yrotation Xrotation
									End Site
									{
										OFFSET 0.000000 0.000000 0.000000
									}
								}
							}
						}
					}
				}
				JOINT RightShoulder
				{
					OFFSET 0.000000 0.000000 0.000000
					CHANNELS 3 Zrotation Yrotation Xrotation
					JOINT RightArm
					{
						OFFSET -3.136600 1.374050 -0.404650
						CHANNELS 3 Zrotation Yrotation Xrotation
						JOINT RightForeArm
						{
							OFFSET -5.241900 -0.000000 -0.000000
							CHANNELS 3 Zrotation Yrotation Xrotation
							JOINT RightHand
							{
								OFFSET -3.444170 -0.000000 -0.000000
								CHANNELS 3 Zrotation Yrotation Xrotation
								JOINT RightFingerBase
								{
									OFFSET 0.000000 0.000000 0.000000
									CHANNELS 3 Zrotation Yrotation Xrotation
									JOINT RightHandIndex1
									{
										OFFSET -0.622530 -0.000000 -0.000000
										CHANNELS 3 Zrotation Yrotation Xrotation
										End Site
										{
											OFFSET 0.000000 0.000000 0.000000
										}
									}
								}
								JOINT RThumb
								{
									OFFSET 0.000000 0.000000 0.000000
									CHANNELS 3 Zrotation Yrotation Xrotation
									End Site
									{
										OFFSET 0.000000 0.000000 0.000000
									}
								}
							}
						}
					}
				}
			}
		}
	}
}
MOTION
Frames: 11
Frame Time: 0.008333
-2.043679 17.941963 -5.895865 -1.571622 2.022332 6.939004 -1.957138 2.253401 2.047753 -19.259807 -1.705691 -14.812634 0.347656 7.472021 23.910257 -2.642446 13.142745 -10.757083 0.228300 -3.075400 -8.488800 1.207487 -2.669058 1.537243 15.579173 15.153740 -14.969286 -1.571721 -9.079445 28.308262 -0.381806 0.155025 -7.206506 -0.002300 0.308800 -0.848400 -2.102452 -0.893795 0.852263 1.587746 -1.697449 -1.219669 4.155097 -0.379944 -1.024228 -11.194277 -10.053919 -13.803829 5.881419 -11.749835 13.533064 2.577700 -5.778100 11.021900 -10.878225 -0.399030 -1.585007 -77.375170 -2.419129 26.609722 9.969654 -19.801685 -1.914027 -0.181803 -1.627001 14.227502 11.123373 27.623407 5.390600 -7.125000 0.000000 0.000000 -22.409400 58.292000 -7.530400 9.494153 2.090236 -1.465931 75.694460 -3.337640 11.881644 -16.104110 23.045130 -4.031544 0.676759 -0.501436 20.569247 -19.600833 0.749514 -0.368700 7.125000 0.000000 0.000000 4.800000 -28.908500 1.887500 
-2.044583 17.943571 -5.895463 -1.583123 2.033984 6.956090 -1.956717 2.250462 2.044004 -19.250712 -1.674954 -14.858251 0.346459 7.471669 23.901797 -2.653260 13.174186 -10.720097 0.237800 -3.138300 -8.664100 1.208001 -2.668090 1.538195 15.592409 15.121231 -14.970592 -1.564661 -9.067419 28.270762 -0.379702 0.170993 -7.116416 -0.000700 0.175500 -0.482100 -2.083721 -0.889619 0.806639 1.597108 -1.691223 -1.187276 4.151056 -0.379777 -0.951043 -11.164202 -10.087039 -14.038080 5.860866 -11.783316 13.655405 2.547900 -5.784500 11.109000 -10.873596 -0.401948 -1.580091 -77.433628 -2.535027 26.416773 9.962920 -19.784187 -1.911621 -0.183259 -1.624300 14.313202 11.106079 27.580772 5.374200 -7.125000 0.000000 0.000000 -22.394000 58.246500 -7.500100 9.496485 2.090553 -1.466204 75.692756 -3.262642 11.970416 -16.148708 23.097151 -4.049724 0.679350 -0.492748 20.494990 -19.556269 0.652725 -0.328900 7.125000 0.000000 0.000000 4.840100 -29.020000 1.890600 
-2.045789 17.943471 -5.894961 -1.594152 2.058402 6.936208 -1.956687 2.253499 2.046086 -19.234153 -1.655049 -14.833385 0.343407 7.463834 23.878891 -2.654354 13.169007 -10.681374 0.231800 -3.098900 -8.554300 1.207769 -2.669355 1.539395 15.611097 15.093722 -14.949386 -1.566439 -9.069870 28.279693 -0.387845 0.210698 -7.121291 -0.000200 0.096000 -0.263600 -2.058920 -0.889206 0.790989 1.608477 -1.689261 -1.156084 4.149352 -0.382238 -0.896894 -11.178026 -10.105870 -14.262384 5.897827 -11.790437 13.797058 2.549800 -5.776300 11.207000 -10.870754 -0.399491 -1.578667 -77.465033 -2.596961 26.356311 9.948529 -19.758455 -1.906476 -0.187089 -1.620410 14.363337 11.165890 27.486722 5.389600 -7.125000 0.000000 0.000000 -22.258400 58.170900 -7.410800 9.500768 2.094333 -1.464019 75.677902 -3.179579 12.018593 -16.154300 23.102278 -4.051805 0.679931 -0.492737 20.481409 -19.564181 0.648620 -0.327600 7.125000 0.000000 0.000000 4.833800 -29.024300 1.887600 
-2.046392 17.943069 -5.894961 -1.575083 2.092954 6.939615 -1.957910 2.253474 2.045769 -19.246995 -1.679930 -14.808252 0.334436 7.446222 23.827804 -2.654763 13.167397 -10.665495 0.219800 -3.018200 -8.329500 1.206102 -2.667890 1.539636 15.592494 15.041481 -14.975746 -1.571177 -9.079470 28.305429 -0.394193 0.244940 -7.108747 -0.000400 0.130700 -0.359100 -2.080988 -0.895562 0.740875 1.629689 -1.697710 -1.134547 4.188314 -0.389597 -0.833259 -11.221851 -10.128814 -14.361172 5.917616 -11.802410 13.850451 2.556000 -5.779100 11.250300 -10.868471 -0.397029 -1.577888 -77.522265 -2.637393 26.346573 9.950793 -19.759426 -1.905002 -0.193207 -1.621523 14.403909 11.287410 27.558129 5.465300 -7.125000 0.000000 0.000000 -22.184200 58.266800 -7.436200 9.504077 2.096014 -1.461619 75.624134 -3.129025 12.040903 -16.164016 23.116588 -4.057176 0.674624 -0.496436 20.479625 -19.552457 0.748567 -0.366300 7.125000 0.000000 0.000000 4.841100 -28.912600 1.903300 
-2.047699 17.942365 -5.896267 -1.500082 2.125874 6.939569 -1.958895 2.252390 2.044108 -19.319737 -1.721270 -14.766303 0.324114 7.424078 23.768085 -2.657846 13.179089 -10.651553 0.215900 -2.991500 -8.255000 1.204244 -2.666539 1.540289 15.517377 14.992018 -15.013861 -1.578883 -9.096608 28.349089 -0.395025 0.243235 -7.114732 -0.000600 0.158200 -0.434700 -2.164820 -0.879944 0.697787 1.615000 -1.678997 -1.126439 4.217222 -0.380939 -0.799792 -11.184753 -10.151181 -14.231266 5.873998 -11.849732 13.735075 2.533900 -5.806700 11.181600 -10.868493 -0.401724 -1.577103 -77.511134 -2.627128 26.358084 9.991080 -19.824479 -1.922228 -0.184586 -1.622350 14.391897 11.116749 27.558860 5.375300 -7.125000 0.000000 0.000000 -22.366200 58.227000 -7.479500 9.503183 2.091608 -1.460802 75.615643 -3.115347 12.019333 -16.152594 23.101549 -4.051919 0.675696 -0.496258 20.507484 -19.555204 0.723531 -0.356800 7.125000 0.000000 0.000000 4.839300 -28.940200 1.899400 
-2.049809 17.943069 -5.896167 -1.327451 2.120421 6.992254 -1.959903 2.244840 2.038951 -19.514865 -1.667133 -14.792074 0.314953 7.400505 23.707322 -2.652442 13.153240 -10.581023 0.230700 -3.091300 -8.533100 1.200030 -2.661652 1.538724 15.315407 14.969146 -15.114167 -1.586937 -9.118054 28.394958 -0.400908 0.275023 -7.079028 -0.000600 0.158200 -0.434800 -2.344847 -0.868340 0.620980 1.576691 -1.668639 -1.164893 4.270107 -0.373016 -0.809531 -11.177710 -10.158109 -14.002762 5.794392 -11.875613 13.604936 2.512800 -5.834700 11.086600 -10.872432 -0.407085 -1.579324 -77.472413 -2.541885 26.420718 10.018707 -19.873087 -1.937287 -0.163750 -1.623911 14.216654 10.741183 27.504895 5.169800 -7.125000 0.000000 0.000000 -22.721700 58.088500 -7.529900 9.501890 2.084721 -1.461570 75.603332 -3.123242 12.002382 -16.103147 23.039801 -4.028916 0.674161 -0.493808 20.560489 -19.481298 0.685266 -0.340300 7.125000 0.000000 0.000000 4.900300 -28.983500 1.918500 
-2.051618 17.943270 -5.897674 -1.249822 2.094037 7.015316 -1.962634 2.243047 2.038835 -19.598454 -1.641140 -14.796016 0.305705 7.379250 23.645418 -2.665731 13.189375 -10.500667 0.250500 -3.220500 -8.893300 1.197790 -2.660774 1.535122 15.217992 15.045549 -15.145268 -1.595173 -9.133235 28.437041 -0.408053 0.306800 -7.087393 -0.000500 0.148800 -0.408700 -2.454856 -0.881920 0.587982 1.591061 -1.689308 -1.196640 4.354194 -0.381555 -0.827868 -11.260900 -10.111920 -13.791565 5.817058 -11.805628 13.471396 2.556000 -5.815600 10.999000 -10.874653 -0.403543 -1.582096 -77.532696 -2.467885 26.288767 10.026079 -19.884326 -1.941150 -0.150038 -1.627660 14.175207 10.453527 27.579894 5.031200 -7.125000 0.000000 0.000000 -23.082500 58.091700 -7.659800 9.501382 2.084699 -1.461023 75.542292 -3.142301 12.140513 -16.092412 23.026976 -4.023212 0.678580 -0.488605 20.467707 -19.468155 0.614743 -0.312100 7.125000 0.000000 0.000000 4.912500 -29.063900 1.913900 
-2.052724 17.942968 -5.899584 -1.237172 2.073022 7.008422 -1.963945 2.245166 2.042908 -19.612964 -1.582316 -14.791222 0.300275 7.365098 23.605160 -2.653234 13.126993 -10.422942 0.251400 -3.226400 -8.909700 1.196902 -2.661089 1.532627 15.196688 15.097156 -15.145780 -1.602679 -9.144834 28.474109 -0.418889 0.343756 -7.149412 -0.000400 0.128600 -0.353400 -2.483957 -0.873982 0.607200 1.603886 -1.679347 -1.221675 4.391810 -0.374796 -0.874904 -11.331226 -10.086862 -13.635204 5.903022 -11.769722 13.394813 2.610000 -5.800900 10.950400 -10.875372 -0.395093 -1.587271 -77.576691 -2.364593 26.229134 10.059437 -19.937945 -1.952379 -0.140312 -1.635176 14.239504 10.219478 27.798430 4.941500 -7.125000 0.000000 0.000000 -23.500100 58.241200 -7.894200 9.500038 2.089869 -1.458003 75.508641 -3.146801 12.209537 -16.080777 23.012221 -4.017892 0.682400 -0.488755 20.354229 -19.505457 0.614074 -0.312700 7.125000 0.000000 0.000000 4.880900 -29.064100 1.901500 
-2.052724 17.944174 -5.900287 -1.198537 2.077375 7.034739 -1.964001 2.241513 2.039991 -19.659143 -1.587074 -14.804567 0.298492 7.360758 23.594723 -2.642523 13.084541 -10.398479 0.256500 -3.258300 -8.998800 1.195112 -2.657851 1.531353 15.143989 15.068019 -15.198020 -1.605594 -9.152404 28.490632 -0.428506 0.389629 -7.150254 -0.001000 0.199400 -0.548000 -2.500394 -0.868302 0.581151 1.598079 -1.672163 -1.211776 4.391158 -0.372138 -0.844229 -11.306936 -10.088820 -13.732788 5.875309 -11.769728 13.448277 2.591400 -5.798600 10.983100 -10.875015 -0.399945 -1.584866 -77.609931 -2.420920 26.120197 10.048466 -19.916156 -1.947078 -0.138364 -1.636836 14.354103 10.106398 27.874940 4.893300 -7.125000 0.000000 0.000000 -23.678700 58.285400 -7.984200 9.503695 2.089949 -1.455833 75.501320 -3.022417 12.200133 -16.052838 22.972402 -4.004760 0.685632 -0.490953 20.399756 -19.544980 0.577256 -0.300000 7.125000 0.000000 0.000000 4.848700 -29.102600 1.884400 
-2.054231 17.943672 -5.903503 -1.185292 2.097994 7.054931 -1.963748 2.238360 2.035922 -19.669341 -1.621683 -14.829458 0.297858 7.361917 23.593247 -2.658599 13.141441 -10.381152 0.257900 -3.267600 -9.024700 1.195258 -2.654955 1.528426 15.129545 15.087437 -15.231594 -1.607714 -9.156265 28.501401 -0.425451 0.375659 -7.143964 -0.000400 0.135200 -0.371600 -2.498203 -0.858004 0.572260 1.590708 -1.657925 -1.192752 4.379199 -0.366966 -0.812017 -11.302137 -10.125402 -13.854025 5.891186 -11.811457 13.499062 2.583500 -5.810600 11.029700 -10.873409 -0.401147 -1.584524 -77.573330 -2.480555 26.259640 10.062009 -19.937124 -1.950017 -0.136734 -1.642372 14.237560 10.113130 28.031568 4.921300 -7.125000 0.000000 0.000000 -23.795300 58.434300 -8.112800 9.504641 2.093793 -1.453308 75.511931 -2.938698 12.223650 -16.061284 22.978288 -4.007673 0.693375 -0.488861 20.395054 -19.609674 0.470714 -0.259900 7.125000 0.000000 0.000000 4.798300 -29.220400 1.851200 
-2.056543 17.944275 -5.908629 -1.153056 2.112553 7.046935 -1.963609 2.237646 2.034410 -19.692239 -1.618179 -14.847191 0.297894 7.362122 23.591971 -2.655303 13.122237 -10.339942 0.252500 -3.233500 -8.929500 1.195667 -2.653816 1.526285 15.113465 15.123016 -15.231683 -1.609713 -9.159875 28.512687 -0.407781 0.278239 -7.172284 -0.000700 0.171800 -0.472000 -2.527736 -0.842453 0.624622 1.574945 -1.637289 -1.186342 4.375101 -0.357295 -0.835660 -11.313476 -10.163446 -13.904378 5.980747 -11.861078 13.511466 2.605500 -5.821300 11.057700 -10.873290 -0.396149 -1.585063 -77.532446 -2.511421 26.309339 10.054179 -19.924621 -1.946438 -0.133713 -1.645195 14.223034 10.031710 28.112284 4.890700 -7.125000 0.000000 0.000000 -23.944900 58.490600 -8.200400 9.501398 2.101687 -1.452235 75.545073 -2.946579 12.298923 -16.106346 23.030233 -4.026463 0.706465 -0.480387 20.333195 -19.688095 0.267670 -0.180900 7.125000 0.000000 0.000000 4.739900 -29.448300 1.802800 
